<svg width="307" height="49" viewBox="0 0 307 49" fill="none" xmlns="http://www.w3.org/2000/svg">
<g filter="url(#filter0_ii_227_262)">
<path d="M30.808 39.488H13.016L10.072 48H0.664L16.728 3.264H27.16L43.224 48H33.752L30.808 39.488ZM28.376 32.32L21.912 13.632L15.448 32.32H28.376ZM58.1885 17.728C59.3405 16.0213 60.9192 14.6347 62.9245 13.568C64.9725 12.5013 67.2978 11.968 69.9005 11.968C72.9298 11.968 75.6605 12.7147 78.0925 14.208C80.5672 15.7013 82.5085 17.8347 83.9165 20.608C85.3672 23.3387 86.0925 26.5173 86.0925 30.144C86.0925 33.7707 85.3672 36.992 83.9165 39.808C82.5085 42.5813 80.5672 44.736 78.0925 46.272C75.6605 47.808 72.9298 48.576 69.9005 48.576C67.2552 48.576 64.9298 48.064 62.9245 47.04C60.9618 45.9733 59.3832 44.608 58.1885 42.944V48H49.2285V0.639999H58.1885V17.728ZM76.9405 30.144C76.9405 28.0107 76.4925 26.176 75.5965 24.64C74.7432 23.0613 73.5912 21.8667 72.1405 21.056C70.7325 20.2453 69.1965 19.84 67.5325 19.84C65.9112 19.84 64.3752 20.2667 62.9245 21.12C61.5165 21.9307 60.3645 23.1253 59.4685 24.704C58.6152 26.2827 58.1885 28.1387 58.1885 30.272C58.1885 32.4053 58.6152 34.2613 59.4685 35.84C60.3645 37.4187 61.5165 38.6347 62.9245 39.488C64.3752 40.2987 65.9112 40.704 67.5325 40.704C69.1965 40.704 70.7325 40.2773 72.1405 39.424C73.5912 38.5707 74.7432 37.3547 75.5965 35.776C76.4925 34.1973 76.9405 32.32 76.9405 30.144ZM108.348 48.576C104.934 48.576 101.862 47.8293 99.1315 46.336C96.4008 44.8 94.2462 42.6453 92.6675 39.872C91.1315 37.0987 90.3635 33.8987 90.3635 30.272C90.3635 26.6453 91.1528 23.4453 92.7315 20.672C94.3528 17.8987 96.5502 15.7653 99.3235 14.272C102.097 12.736 105.19 11.968 108.604 11.968C112.017 11.968 115.11 12.736 117.884 14.272C120.657 15.7653 122.833 17.8987 124.412 20.672C126.033 23.4453 126.844 26.6453 126.844 30.272C126.844 33.8987 126.012 37.0987 124.347 39.872C122.726 42.6453 120.508 44.8 117.692 46.336C114.918 47.8293 111.804 48.576 108.348 48.576ZM108.348 40.768C109.969 40.768 111.484 40.384 112.892 39.616C114.342 38.8053 115.494 37.6107 116.348 36.032C117.201 34.4533 117.628 32.5333 117.628 30.272C117.628 26.9013 116.732 24.32 114.94 22.528C113.19 20.6933 111.036 19.776 108.476 19.776C105.916 19.776 103.761 20.6933 102.012 22.528C100.305 24.32 99.4515 26.9013 99.4515 30.272C99.4515 33.6427 100.284 36.2453 101.948 38.08C103.654 39.872 105.788 40.768 108.348 40.768ZM166.888 12.544V48H157.864V43.52C156.712 45.056 155.197 46.272 153.32 47.168C151.485 48.0213 149.48 48.448 147.304 48.448C144.531 48.448 142.077 47.872 139.944 46.72C137.811 45.5253 136.125 43.7973 134.888 41.536C133.693 39.232 133.096 36.5013 133.096 33.344V12.544H142.056V32.064C142.056 34.88 142.76 37.056 144.168 38.592C145.576 40.0853 147.496 40.832 149.928 40.832C152.403 40.832 154.344 40.0853 155.752 38.592C157.16 37.056 157.864 34.88 157.864 32.064V12.544H166.888ZM186.161 19.904V37.056C186.161 38.2507 186.438 39.1253 186.993 39.68C187.59 40.192 188.571 40.448 189.937 40.448H194.097V48H188.465C180.913 48 177.137 44.3307 177.137 36.992V19.904H172.913V12.544H177.137V3.776H186.161V12.544H194.097V19.904H186.161ZM264.495 3.328V48H255.535V18.944L243.567 48H236.783L224.751 18.944V48H215.791V3.328H225.967L240.175 36.544L254.383 3.328H264.495ZM306.314 29.504C306.314 30.784 306.228 31.936 306.058 32.96H280.138C280.351 35.52 281.247 37.5253 282.826 38.976C284.404 40.4267 286.346 41.152 288.65 41.152C291.978 41.152 294.346 39.7227 295.754 36.864H305.418C304.394 40.2773 302.431 43.0933 299.53 45.312C296.628 47.488 293.066 48.576 288.842 48.576C285.428 48.576 282.356 47.8293 279.626 46.336C276.938 44.8 274.826 42.6453 273.29 39.872C271.796 37.0987 271.049 33.8987 271.049 30.272C271.049 26.6027 271.796 23.3813 273.29 20.608C274.783 17.8347 276.874 15.7013 279.562 14.208C282.25 12.7147 285.343 11.968 288.842 11.968C292.212 11.968 295.22 12.6933 297.866 14.144C300.554 15.5947 302.623 17.664 304.074 20.352C305.567 22.9973 306.314 26.048 306.314 29.504ZM297.034 26.944C296.991 24.64 296.159 22.8053 294.538 21.44C292.916 20.032 290.932 19.328 288.586 19.328C286.367 19.328 284.49 20.0107 282.954 21.376C281.46 22.6987 280.543 24.5547 280.202 26.944H297.034Z" fill="#999999" fill-opacity="0.8"/>
</g>
<defs>
<filter id="filter0_ii_227_262" x="0.664001" y="0.639999" width="306.65" height="53.936" filterUnits="userSpaceOnUse" color-interpolation-filters="sRGB">
<feFlood flood-opacity="0" result="BackgroundImageFix"/>
<feBlend mode="normal" in="SourceGraphic" in2="BackgroundImageFix" result="shape"/>
<feColorMatrix in="SourceAlpha" type="matrix" values="0 0 0 0 0 0 0 0 0 0 0 0 0 0 0 0 0 0 127 0" result="hardAlpha"/>
<feOffset dy="6"/>
<feGaussianBlur stdDeviation="3"/>
<feComposite in2="hardAlpha" operator="arithmetic" k2="-1" k3="1"/>
<feColorMatrix type="matrix" values="0 0 0 0 0 0 0 0 0 0 0 0 0 0 0 0 0 0 0.5 0"/>
<feBlend mode="normal" in2="shape" result="effect1_innerShadow_227_262"/>
<feColorMatrix in="SourceAlpha" type="matrix" values="0 0 0 0 0 0 0 0 0 0 0 0 0 0 0 0 0 0 127 0" result="hardAlpha"/>
<feOffset dx="1"/>
<feGaussianBlur stdDeviation="1.5"/>
<feComposite in2="hardAlpha" operator="arithmetic" k2="-1" k3="1"/>
<feColorMatrix type="matrix" values="0 0 0 0 0.108333 0 0 0 0 0.108333 0 0 0 0 0.108333 0 0 0 1 0"/>
<feBlend mode="normal" in2="effect1_innerShadow_227_262" result="effect2_innerShadow_227_262"/>
</filter>
</defs>
</svg>
