<svg width="27" height="28" viewBox="0 0 27 28" fill="none" xmlns="http://www.w3.org/2000/svg">
<path d="M13.5 2.66602C6.97676 2.66602 1.6875 7.95527 1.6875 14.4785C1.6875 21.0018 6.97676 26.291 13.5 26.291C20.0232 26.291 25.3125 21.0018 25.3125 14.4785C25.3125 7.95527 20.0232 2.66602 13.5 2.66602ZM13.5 24.2871C8.08418 24.2871 3.69141 19.8943 3.69141 14.4785C3.69141 9.0627 8.08418 4.66992 13.5 4.66992C18.9158 4.66992 23.3086 9.0627 23.3086 14.4785C23.3086 19.8943 18.9158 24.2871 13.5 24.2871ZM13.6477 10.2413C15.0451 10.2413 15.9943 11.1325 16.0998 12.4403C16.1077 12.5511 16.2 12.6354 16.3107 12.6354H17.8058C17.8743 12.6354 17.9297 12.5801 17.9297 12.5115C17.9297 10.2255 16.1262 8.625 13.6397 8.625C10.742 8.625 9.07031 10.5814 9.07031 13.8141V15.1931C9.07031 18.402 10.742 20.332 13.6397 20.332C16.1183 20.332 17.9297 18.7816 17.9297 16.6037C17.9297 16.5352 17.8743 16.4798 17.8058 16.4798H16.3081C16.1974 16.4798 16.1077 16.5642 16.0972 16.6723C15.9864 17.8878 15.0398 18.7236 13.645 18.7236C11.9232 18.7236 10.9529 17.4606 10.9529 15.201V13.8141C10.9556 11.5201 11.9285 10.2413 13.6477 10.2413V10.2413Z" fill="white"/>
</svg>
