<svg width="30" height="30" viewBox="0 0 30 30" fill="none" xmlns="http://www.w3.org/2000/svg">
<path d="M12.0667 26.0819C12.0665 25.8966 11.9843 25.7209 11.8421 25.6021C11.6988 25.485 11.5119 25.4356 11.3294 25.4666C9.34091 25.8353 6.81893 25.8402 6.08651 23.7833C5.636 22.6839 4.91403 21.7166 3.98812 20.972C3.79647 20.8737 3.62374 20.7424 3.47787 20.5839C3.42859 20.2828 3.16896 20.0614 2.86386 20.0601H2.86134C2.51718 20.0601 2.23771 20.3385 2.23634 20.6827C2.23268 21.3956 3.12501 21.929 3.38868 22.0694C4.05122 22.6645 4.57284 23.3998 4.91586 24.2216C5.35165 25.446 6.67977 27.3405 10.8192 26.8119C10.8228 27.2672 10.8289 27.5028 10.8338 27.6823L10.8399 28.0509C10.8399 28.3961 11.1198 28.6759 11.4649 28.6759C11.8101 28.6759 12.0899 28.3961 12.0899 28.0509L12.0838 27.648C12.0765 27.3966 12.0667 27.0341 12.0667 26.0819ZM26.1512 6.52986C26.1134 6.48226 26.0731 6.43221 26.0316 6.38216C26.1155 6.11795 26.1815 5.84841 26.2293 5.57535C26.4228 4.23388 26.2512 2.86501 25.7325 1.6128C25.6641 1.44075 25.5228 1.30793 25.3468 1.25032C25.1698 1.19173 23.5548 0.75716 20.1844 2.97762C17.3607 2.25985 14.4022 2.25985 11.5785 2.97762C8.20932 0.782795 6.60409 1.19417 6.42587 1.24666C6.2465 1.30327 6.10185 1.43717 6.03158 1.61165C5.5034 2.88279 5.33288 4.27408 5.53842 5.63509C5.58625 5.88465 5.64698 6.13153 5.7203 6.37484C5.67636 6.42862 5.63485 6.48226 5.59579 6.53475C4.53759 7.87729 3.97454 9.54363 4.00155 11.2528C3.9985 11.6405 4.01643 12.028 4.05526 12.4137C4.48007 18.2438 8.24105 19.8661 11.4894 20.4203C11.2779 20.7996 11.1197 21.2062 11.0194 21.6288C10.9371 21.9638 11.1421 22.3022 11.4771 22.3844C11.8122 22.4667 12.1505 22.2618 12.2328 21.9267C12.3484 21.3521 12.6387 20.8273 13.064 20.424C13.3241 20.1965 13.3505 19.8012 13.123 19.5411C13.0205 19.424 12.878 19.3492 12.7234 19.3315C9.27743 18.9408 5.70077 17.8019 5.3003 12.3002C5.26498 11.9522 5.24873 11.6026 5.25155 11.2528C5.22798 9.81813 5.70054 8.41928 6.58944 7.2928C6.68344 7.16585 6.78842 7.04988 6.89218 6.93514C7.05064 6.76027 7.09741 6.5111 7.01303 6.29061C6.90637 6.0087 6.82504 5.71787 6.77011 5.42147C6.62042 4.4166 6.72021 3.39037 7.06063 2.43319C8.54508 2.63987 9.94699 3.24053 11.1206 4.17269C11.2721 4.27492 11.461 4.30529 11.637 4.2557C14.4175 3.5013 17.3489 3.5013 20.1294 4.2557C20.3063 4.30513 20.496 4.27431 20.6481 4.17147C21.8135 3.22969 23.2149 2.62545 24.6997 2.42464C25.0362 3.3674 25.1379 4.37799 24.9963 5.36898C24.9411 5.68392 24.8548 5.99268 24.7388 6.29061C24.6544 6.5111 24.7011 6.7602 24.8596 6.93514C24.9695 7.05599 25.0794 7.19149 25.1757 7.31234C26.0668 8.43012 26.5399 9.82363 26.5138 11.2528C26.5167 11.6104 26.4991 11.9678 26.4613 12.3234C26.0645 17.7995 22.4745 18.9384 19.015 19.3315C18.6717 19.3708 18.4254 19.6811 18.4648 20.0244C18.4826 20.179 18.5573 20.3214 18.6744 20.4239C19.1053 20.8301 19.3939 21.3643 19.4972 21.9473C19.6037 22.359 19.6534 22.7833 19.6449 23.2083V26.2821C19.6315 27.1269 19.6315 27.7604 19.6315 28.0509C19.632 28.396 19.9122 28.6755 20.2573 28.675C20.6018 28.6745 20.881 28.3953 20.8815 28.0509C20.8815 27.7628 20.8815 27.1366 20.8949 26.2918V23.2083C20.9047 22.679 20.8418 22.1508 20.7082 21.6385C20.6141 21.2126 20.4596 20.8023 20.2492 20.4202C23.5097 19.8673 27.2852 18.2462 27.7065 12.4393C27.7478 12.0452 27.767 11.649 27.7638 11.2528C27.7923 9.53875 27.222 7.86852 26.1512 6.52986Z" fill="white"/>
</svg>
