<svg width="287" height="47" viewBox="0 0 287 47" fill="none" xmlns="http://www.w3.org/2000/svg">
<g filter="url(#filter0_ii_230_440)">
<path d="M49.12 1.328V46H40.16V16.944L28.192 46H21.408L9.376 16.944V46H0.416V1.328H10.592L24.8 34.544L39.008 1.328H49.12ZM90.9385 27.504C90.9385 28.784 90.8532 29.936 90.6825 30.96H64.7625C64.9758 33.52 65.8718 35.5253 67.4505 36.976C69.0292 38.4267 70.9705 39.152 73.2745 39.152C76.6025 39.152 78.9705 37.7227 80.3785 34.864H90.0425C89.0185 38.2773 87.0558 41.0933 84.1545 43.312C81.2532 45.488 77.6905 46.576 73.4665 46.576C70.0532 46.576 66.9812 45.8293 64.2505 44.336C61.5625 42.8 59.4505 40.6453 57.9145 37.872C56.4212 35.0987 55.6745 31.8987 55.6745 28.272C55.6745 24.6027 56.4212 21.3813 57.9145 18.608C59.4078 15.8347 61.4985 13.7013 64.1865 12.208C66.8745 10.7147 69.9678 9.968 73.4665 9.968C76.8372 9.968 79.8452 10.6933 82.4905 12.144C85.1785 13.5947 87.2478 15.664 88.6985 18.352C90.1918 20.9973 90.9385 24.048 90.9385 27.504ZM81.6585 24.944C81.6158 22.64 80.7838 20.8053 79.1625 19.44C77.5412 18.032 75.5572 17.328 73.2105 17.328C70.9918 17.328 69.1145 18.0107 67.5785 19.376C66.0852 20.6987 65.1678 22.5547 64.8265 24.944H81.6585ZM130.439 27.504C130.439 28.784 130.353 29.936 130.183 30.96H104.263C104.476 33.52 105.372 35.5253 106.951 36.976C108.529 38.4267 110.471 39.152 112.775 39.152C116.103 39.152 118.471 37.7227 119.879 34.864H129.543C128.519 38.2773 126.556 41.0933 123.655 43.312C120.753 45.488 117.191 46.576 112.967 46.576C109.553 46.576 106.481 45.8293 103.751 44.336C101.063 42.8 98.9505 40.6453 97.4145 37.872C95.9212 35.0987 95.1745 31.8987 95.1745 28.272C95.1745 24.6027 95.9212 21.3813 97.4145 18.608C98.9078 15.8347 100.999 13.7013 103.687 12.208C106.375 10.7147 109.468 9.968 112.967 9.968C116.337 9.968 119.345 10.6933 121.991 12.144C124.679 13.5947 126.748 15.664 128.199 18.352C129.692 20.9973 130.439 24.048 130.439 27.504ZM121.159 24.944C121.116 22.64 120.284 20.8053 118.663 19.44C117.041 18.032 115.057 17.328 112.711 17.328C110.492 17.328 108.615 18.0107 107.079 19.376C105.585 20.6987 104.668 22.5547 104.327 24.944H121.159ZM147.411 17.904V35.056C147.411 36.2507 147.688 37.1253 148.243 37.68C148.84 38.192 149.821 38.448 151.187 38.448H155.347V46H149.715C142.163 46 138.387 42.3307 138.387 34.992V17.904H134.163V10.544H138.387V1.776H147.411V10.544H155.347V17.904H147.411ZM225.745 1.328V46H216.785V16.944L204.817 46H198.033L186.001 16.944V46H177.041V1.328H187.217L201.425 34.544L215.633 1.328H225.745ZM267.564 27.504C267.564 28.784 267.478 29.936 267.308 30.96H241.388C241.601 33.52 242.497 35.5253 244.076 36.976C245.654 38.4267 247.596 39.152 249.9 39.152C253.228 39.152 255.596 37.7227 257.004 34.864H266.668C265.644 38.2773 263.681 41.0933 260.78 43.312C257.878 45.488 254.316 46.576 250.092 46.576C246.678 46.576 243.606 45.8293 240.876 44.336C238.188 42.8 236.076 40.6453 234.54 37.872C233.046 35.0987 232.299 31.8987 232.299 28.272C232.299 24.6027 233.046 21.3813 234.54 18.608C236.033 15.8347 238.124 13.7013 240.812 12.208C243.5 10.7147 246.593 9.968 250.092 9.968C253.462 9.968 256.47 10.6933 259.116 12.144C261.804 13.5947 263.873 15.664 265.324 18.352C266.817 20.9973 267.564 24.048 267.564 27.504ZM258.284 24.944C258.241 22.64 257.409 20.8053 255.788 19.44C254.166 18.032 252.182 17.328 249.836 17.328C247.617 17.328 245.74 18.0107 244.204 19.376C242.71 20.6987 241.793 22.5547 241.452 24.944H258.284ZM285.688 0.559998L284.664 31.472H277.112L276.024 0.559998H285.688ZM281.08 46.448C279.458 46.448 278.114 45.9573 277.048 44.976C276.024 43.952 275.512 42.6933 275.512 41.2C275.512 39.7067 276.024 38.4693 277.048 37.488C278.114 36.464 279.458 35.952 281.08 35.952C282.658 35.952 283.96 36.464 284.984 37.488C286.008 38.4693 286.52 39.7067 286.52 41.2C286.52 42.6933 286.008 43.952 284.984 44.976C283.96 45.9573 282.658 46.448 281.08 46.448Z" fill="#999999" fill-opacity="0.8"/>
</g>
<defs>
<filter id="filter0_ii_230_440" x="0.416016" y="0.560059" width="287.104" height="52.0161" filterUnits="userSpaceOnUse" color-interpolation-filters="sRGB">
<feFlood flood-opacity="0" result="BackgroundImageFix"/>
<feBlend mode="normal" in="SourceGraphic" in2="BackgroundImageFix" result="shape"/>
<feColorMatrix in="SourceAlpha" type="matrix" values="0 0 0 0 0 0 0 0 0 0 0 0 0 0 0 0 0 0 127 0" result="hardAlpha"/>
<feOffset dy="6"/>
<feGaussianBlur stdDeviation="3"/>
<feComposite in2="hardAlpha" operator="arithmetic" k2="-1" k3="1"/>
<feColorMatrix type="matrix" values="0 0 0 0 0 0 0 0 0 0 0 0 0 0 0 0 0 0 0.5 0"/>
<feBlend mode="normal" in2="shape" result="effect1_innerShadow_230_440"/>
<feColorMatrix in="SourceAlpha" type="matrix" values="0 0 0 0 0 0 0 0 0 0 0 0 0 0 0 0 0 0 127 0" result="hardAlpha"/>
<feOffset dx="1"/>
<feGaussianBlur stdDeviation="1.5"/>
<feComposite in2="hardAlpha" operator="arithmetic" k2="-1" k3="1"/>
<feColorMatrix type="matrix" values="0 0 0 0 0.108333 0 0 0 0 0.108333 0 0 0 0 0.108333 0 0 0 1 0"/>
<feBlend mode="normal" in2="effect1_innerShadow_230_440" result="effect2_innerShadow_230_440"/>
</filter>
</defs>
</svg>
