<svg width="483" height="100" viewBox="0 0 483 100" fill="none" xmlns="http://www.w3.org/2000/svg">
<rect x="483" y="100" width="483" height="4.00004" rx="2.00002" transform="rotate(180 483 100)" fill="#252525"/>
<g filter="url(#filter0_ii_226_200)">
<path d="M44.16 70H33.216L14.912 42.288V70H3.968V25.072H14.912L33.216 52.912V25.072H44.16V70ZM51.005 52.08C51.005 48.4107 51.6877 45.1893 53.053 42.416C54.461 39.6427 56.3597 37.5093 58.749 36.016C61.1383 34.5227 63.805 33.776 66.749 33.776C69.2663 33.776 71.4637 34.288 73.341 35.312C75.261 36.336 76.733 37.68 77.757 39.344V34.288H88.701V70H77.757V64.944C76.6903 66.608 75.197 67.952 73.277 68.976C71.3997 70 69.2023 70.512 66.685 70.512C63.7837 70.512 61.1383 69.7653 58.749 68.272C56.3597 66.736 54.461 64.5813 53.053 61.808C51.6877 58.992 51.005 55.7493 51.005 52.08ZM77.757 52.144C77.757 49.4133 76.989 47.2587 75.453 45.68C73.9597 44.1013 72.125 43.312 69.949 43.312C67.773 43.312 65.917 44.1013 64.381 45.68C62.8877 47.216 62.141 49.3493 62.141 52.08C62.141 54.8107 62.8877 56.9867 64.381 58.608C65.917 60.1867 67.773 60.976 69.949 60.976C72.125 60.976 73.9597 60.1867 75.453 58.608C76.989 57.0293 77.757 54.8747 77.757 52.144ZM132.971 34.288V70H122.027V65.136C120.917 66.7147 119.403 67.9947 117.483 68.976C115.605 69.9147 113.515 70.384 111.211 70.384C108.48 70.384 106.069 69.7867 103.979 68.592C101.888 67.3547 100.267 65.584 99.1145 63.28C97.9625 60.976 97.3865 58.2667 97.3865 55.152V34.288H108.267V53.68C108.267 56.0693 108.885 57.9253 110.123 59.248C111.36 60.5707 113.024 61.232 115.115 61.232C117.248 61.232 118.933 60.5707 120.171 59.248C121.408 57.9253 122.027 56.0693 122.027 53.68V34.288H132.971ZM159.839 43.376H153.951V70H143.007V43.376H139.039V34.288H143.007V33.264C143.007 28.8693 144.266 25.5413 146.783 23.28C149.301 20.976 152.991 19.824 157.855 19.824C158.666 19.824 159.263 19.8453 159.647 19.888V29.168C157.557 29.04 156.085 29.3387 155.231 30.064C154.378 30.7893 153.951 32.0907 153.951 33.968V34.288H159.839V43.376ZM163.894 52.08C163.894 48.4107 164.577 45.1893 165.942 42.416C167.35 39.6427 169.249 37.5093 171.638 36.016C174.027 34.5227 176.694 33.776 179.638 33.776C182.155 33.776 184.353 34.288 186.23 35.312C188.15 36.336 189.622 37.68 190.646 39.344V34.288H201.59V70H190.646V64.944C189.579 66.608 188.086 67.952 186.166 68.976C184.289 70 182.091 70.512 179.574 70.512C176.673 70.512 174.027 69.7653 171.638 68.272C169.249 66.736 167.35 64.5813 165.942 61.808C164.577 58.992 163.894 55.7493 163.894 52.08ZM190.646 52.144C190.646 49.4133 189.878 47.2587 188.342 45.68C186.849 44.1013 185.014 43.312 182.838 43.312C180.662 43.312 178.806 44.1013 177.27 45.68C175.777 47.216 175.03 49.3493 175.03 52.08C175.03 54.8107 175.777 56.9867 177.27 58.608C178.806 60.1867 180.662 60.976 182.838 60.976C185.014 60.976 186.849 60.1867 188.342 58.608C189.878 57.0293 190.646 54.8747 190.646 52.144ZM221.54 22.64V70H210.596V22.64H221.54ZM262.041 25.072C266.777 25.072 270.916 26.0107 274.457 27.888C277.998 29.7653 280.729 32.4107 282.649 35.824C284.612 39.1947 285.593 43.0987 285.593 47.536C285.593 51.9307 284.612 55.8347 282.649 59.248C280.729 62.6613 277.977 65.3067 274.393 67.184C270.852 69.0613 266.734 70 262.041 70H245.209V25.072H262.041ZM261.337 60.528C265.476 60.528 268.697 59.3973 271.001 57.136C273.305 54.8747 274.457 51.6747 274.457 47.536C274.457 43.3973 273.305 40.176 271.001 37.872C268.697 35.568 265.476 34.416 261.337 34.416H256.153V60.528H261.337ZM290.621 52.08C290.621 48.4107 291.304 45.1893 292.669 42.416C294.077 39.6427 295.976 37.5093 298.365 36.016C300.754 34.5227 303.421 33.776 306.365 33.776C308.882 33.776 311.08 34.288 312.957 35.312C314.877 36.336 316.349 37.68 317.373 39.344V34.288H328.317V70H317.373V64.944C316.306 66.608 314.813 67.952 312.893 68.976C311.016 70 308.818 70.512 306.301 70.512C303.4 70.512 300.754 69.7653 298.365 68.272C295.976 66.736 294.077 64.5813 292.669 61.808C291.304 58.992 290.621 55.7493 290.621 52.08ZM317.373 52.144C317.373 49.4133 316.605 47.2587 315.069 45.68C313.576 44.1013 311.741 43.312 309.565 43.312C307.389 43.312 305.533 44.1013 303.997 45.68C302.504 47.216 301.757 49.3493 301.757 52.08C301.757 54.8107 302.504 56.9867 303.997 58.608C305.533 60.1867 307.389 60.976 309.565 60.976C311.741 60.976 313.576 60.1867 315.069 58.608C316.605 57.0293 317.373 54.8747 317.373 52.144ZM355.242 43.376H349.354V70H338.41V43.376H334.442V34.288H338.41V33.264C338.41 28.8693 339.669 25.5413 342.186 23.28C344.704 20.976 348.394 19.824 353.258 19.824C354.069 19.824 354.666 19.8453 355.05 19.888V29.168C352.96 29.04 351.488 29.3387 350.634 30.064C349.781 30.7893 349.354 32.0907 349.354 33.968V34.288H355.242V43.376ZM379.393 43.376H373.505V70H362.561V43.376H358.593V34.288H362.561V33.264C362.561 28.8693 363.82 25.5413 366.337 23.28C368.854 20.976 372.545 19.824 377.409 19.824C378.22 19.824 378.817 19.8453 379.201 19.888V29.168C377.11 29.04 375.638 29.3387 374.785 30.064C373.932 30.7893 373.505 32.0907 373.505 33.968V34.288H379.393V43.376ZM383.447 52.08C383.447 48.4107 384.13 45.1893 385.495 42.416C386.903 39.6427 388.802 37.5093 391.191 36.016C393.581 34.5227 396.247 33.776 399.191 33.776C401.709 33.776 403.906 34.288 405.783 35.312C407.703 36.336 409.175 37.68 410.199 39.344V34.288H421.143V70H410.199V64.944C409.133 66.608 407.639 67.952 405.719 68.976C403.842 70 401.645 70.512 399.127 70.512C396.226 70.512 393.581 69.7653 391.191 68.272C388.802 66.736 386.903 64.5813 385.495 61.808C384.13 58.992 383.447 55.7493 383.447 52.08ZM410.199 52.144C410.199 49.4133 409.431 47.2587 407.895 45.68C406.402 44.1013 404.567 43.312 402.391 43.312C400.215 43.312 398.359 44.1013 396.823 45.68C395.33 47.216 394.583 49.3493 394.583 52.08C394.583 54.8107 395.33 56.9867 396.823 58.608C398.359 60.1867 400.215 60.976 402.391 60.976C404.567 60.976 406.402 60.1867 407.895 58.608C409.431 57.0293 410.199 54.8747 410.199 52.144ZM467.712 70L458.368 53.04H455.744V70H444.8V25.072H463.168C466.709 25.072 469.717 25.6907 472.192 26.928C474.709 28.1653 476.586 29.872 477.824 32.048C479.061 34.1813 479.68 36.5707 479.68 39.216C479.68 42.2027 478.826 44.8693 477.12 47.216C475.456 49.5627 472.981 51.2267 469.696 52.208L480.064 70H467.712ZM455.744 45.296H462.528C464.533 45.296 466.026 44.8053 467.008 43.824C468.032 42.8427 468.544 41.456 468.544 39.664C468.544 37.9573 468.032 36.6133 467.008 35.632C466.026 34.6507 464.533 34.16 462.528 34.16H455.744V45.296Z" fill="#999999"/>
</g>
<defs>
<filter id="filter0_ii_226_200" x="1.96799" y="19.824" width="478.096" height="56.688" filterUnits="userSpaceOnUse" color-interpolation-filters="sRGB">
<feFlood flood-opacity="0" result="BackgroundImageFix"/>
<feBlend mode="normal" in="SourceGraphic" in2="BackgroundImageFix" result="shape"/>
<feColorMatrix in="SourceAlpha" type="matrix" values="0 0 0 0 0 0 0 0 0 0 0 0 0 0 0 0 0 0 127 0" result="hardAlpha"/>
<feOffset dy="6"/>
<feGaussianBlur stdDeviation="3"/>
<feComposite in2="hardAlpha" operator="arithmetic" k2="-1" k3="1"/>
<feColorMatrix type="matrix" values="0 0 0 0 0 0 0 0 0 0 0 0 0 0 0 0 0 0 0.59 0"/>
<feBlend mode="normal" in2="shape" result="effect1_innerShadow_226_200"/>
<feColorMatrix in="SourceAlpha" type="matrix" values="0 0 0 0 0 0 0 0 0 0 0 0 0 0 0 0 0 0 127 0" result="hardAlpha"/>
<feOffset dx="-2"/>
<feGaussianBlur stdDeviation="1.5"/>
<feComposite in2="hardAlpha" operator="arithmetic" k2="-1" k3="1"/>
<feColorMatrix type="matrix" values="0 0 0 0 0 0 0 0 0 0 0 0 0 0 0 0 0 0 1 0"/>
<feBlend mode="normal" in2="effect1_innerShadow_226_200" result="effect2_innerShadow_226_200"/>
</filter>
</defs>
</svg>
