<svg width="496" height="68" viewBox="0 0 496 68" fill="none" xmlns="http://www.w3.org/2000/svg">
<g filter="url(#filter0_ii_227_322)">
<path d="M23.456 51L13.6 33.592H9.376V51H0.416V6.328H17.184C20.64 6.328 23.584 6.94667 26.016 8.184C28.448 9.37866 30.2613 11.0213 31.456 13.112C32.6933 15.16 33.312 17.464 33.312 20.024C33.312 22.968 32.4587 25.6347 30.752 28.024C29.0453 30.3707 26.5067 31.992 23.136 32.888L33.824 51H23.456ZM9.376 26.872H16.864C19.296 26.872 21.1093 26.296 22.304 25.144C23.4987 23.9493 24.096 22.3067 24.096 20.216C24.096 18.168 23.4987 16.5893 22.304 15.48C21.1093 14.328 19.296 13.752 16.864 13.752H9.376V26.872ZM74.376 32.504C74.376 33.784 74.2907 34.936 74.12 35.96H48.2C48.4133 38.52 49.3093 40.5253 50.888 41.976C52.4667 43.4267 54.408 44.152 56.712 44.152C60.04 44.152 62.408 42.7227 63.816 39.864H73.48C72.456 43.2773 70.4933 46.0933 67.592 48.312C64.6907 50.488 61.128 51.576 56.904 51.576C53.4907 51.576 50.4187 50.8293 47.688 49.336C45 47.8 42.888 45.6453 41.352 42.872C39.8587 40.0987 39.112 36.8987 39.112 33.272C39.112 29.6027 39.8587 26.3813 41.352 23.608C42.8453 20.8347 44.936 18.7013 47.624 17.208C50.312 15.7147 53.4053 14.968 56.904 14.968C60.2747 14.968 63.2827 15.6933 65.928 17.144C68.616 18.5947 70.6853 20.664 72.136 23.352C73.6293 25.9973 74.376 29.048 74.376 32.504ZM65.096 29.944C65.0533 27.64 64.2213 25.8053 62.6 24.44C60.9787 23.032 58.9947 22.328 56.648 22.328C54.4293 22.328 52.552 23.0107 51.016 24.376C49.5227 25.6987 48.6053 27.5547 48.264 29.944H65.096ZM78.612 33.272C78.612 29.6027 79.3587 26.4027 80.852 23.672C82.3453 20.8987 84.4147 18.7653 87.06 17.272C89.7053 15.736 92.7347 14.968 96.148 14.968C100.543 14.968 104.169 16.0773 107.028 18.296C109.929 20.472 111.871 23.544 112.852 27.512H103.188C102.676 25.976 101.801 24.7813 100.564 23.928C99.3693 23.032 97.876 22.584 96.084 22.584C93.524 22.584 91.4973 23.5227 90.004 25.4C88.5107 27.2347 87.764 29.8587 87.764 33.272C87.764 36.6427 88.5107 39.2667 90.004 41.144C91.4973 42.9787 93.524 43.896 96.084 43.896C99.7107 43.896 102.079 42.2747 103.188 39.032H112.852C111.871 42.872 109.929 45.9227 107.028 48.184C104.127 50.4453 100.5 51.576 96.148 51.576C92.7347 51.576 89.7053 50.8293 87.06 49.336C84.4147 47.8 82.3453 45.6667 80.852 42.936C79.3587 40.1627 78.612 36.9413 78.612 33.272ZM152.376 32.504C152.376 33.784 152.291 34.936 152.12 35.96H126.2C126.413 38.52 127.309 40.5253 128.888 41.976C130.467 43.4267 132.408 44.152 134.712 44.152C138.04 44.152 140.408 42.7227 141.816 39.864H151.48C150.456 43.2773 148.493 46.0933 145.592 48.312C142.691 50.488 139.128 51.576 134.904 51.576C131.491 51.576 128.419 50.8293 125.688 49.336C123 47.8 120.888 45.6453 119.352 42.872C117.859 40.0987 117.112 36.8987 117.112 33.272C117.112 29.6027 117.859 26.3813 119.352 23.608C120.845 20.8347 122.936 18.7013 125.624 17.208C128.312 15.7147 131.405 14.968 134.904 14.968C138.275 14.968 141.283 15.6933 143.928 17.144C146.616 18.5947 148.685 20.664 150.136 23.352C151.629 25.9973 152.376 29.048 152.376 32.504ZM143.096 29.944C143.053 27.64 142.221 25.8053 140.6 24.44C138.979 23.032 136.995 22.328 134.648 22.328C132.429 22.328 130.552 23.0107 129.016 24.376C127.523 25.6987 126.605 27.5547 126.264 29.944H143.096ZM178.564 15.032C182.788 15.032 186.201 16.376 188.804 19.064C191.407 21.7093 192.708 25.4213 192.708 30.2V51H183.748V31.416C183.748 28.6 183.044 26.4453 181.636 24.952C180.228 23.416 178.308 22.648 175.876 22.648C173.401 22.648 171.439 23.416 169.988 24.952C168.58 26.4453 167.876 28.6 167.876 31.416V51H158.916V15.544H167.876V19.96C169.071 18.424 170.585 17.2293 172.42 16.376C174.297 15.48 176.345 15.032 178.564 15.032ZM211.661 22.904V40.056C211.661 41.2507 211.938 42.1253 212.493 42.68C213.09 43.192 214.071 43.448 215.437 43.448H219.597V51H213.965C206.413 51 202.637 47.3307 202.637 39.992V22.904H198.413V15.544H202.637V6.776H211.661V15.544H219.597V22.904H211.661ZM273.867 20.152C273.867 22.5413 273.291 24.7813 272.139 26.872C271.03 28.9627 269.259 30.648 266.827 31.928C264.438 33.208 261.408 33.848 257.739 33.848H250.251V51H241.291V6.328H257.739C261.195 6.328 264.139 6.92533 266.571 8.12C269.003 9.31467 270.816 10.9573 272.011 13.048C273.248 15.1387 273.867 17.5067 273.867 20.152ZM257.355 26.616C259.83 26.616 261.664 26.0613 262.859 24.952C264.054 23.8 264.651 22.2 264.651 20.152C264.651 15.8 262.219 13.624 257.355 13.624H250.251V26.616H257.355ZM289.189 21.048C290.341 19.1707 291.834 17.6987 293.669 16.632C295.546 15.5653 297.679 15.032 300.069 15.032V24.44H297.701C294.885 24.44 292.751 25.1013 291.301 26.424C289.893 27.7467 289.189 30.0507 289.189 33.336V51H280.229V15.544H289.189V21.048ZM321.848 51.576C318.434 51.576 315.362 50.8293 312.632 49.336C309.901 47.8 307.746 45.6453 306.168 42.872C304.632 40.0987 303.864 36.8987 303.864 33.272C303.864 29.6453 304.653 26.4453 306.232 23.672C307.853 20.8987 310.05 18.7653 312.824 17.272C315.597 15.736 318.69 14.968 322.104 14.968C325.517 14.968 328.61 15.736 331.384 17.272C334.157 18.7653 336.333 20.8987 337.912 23.672C339.533 26.4453 340.344 29.6453 340.344 33.272C340.344 36.8987 339.512 40.0987 337.847 42.872C336.226 45.6453 334.008 47.8 331.192 49.336C328.418 50.8293 325.304 51.576 321.848 51.576ZM321.848 43.768C323.469 43.768 324.984 43.384 326.392 42.616C327.842 41.8053 328.994 40.6107 329.848 39.032C330.701 37.4533 331.128 35.5333 331.128 33.272C331.128 29.9013 330.232 27.32 328.44 25.528C326.69 23.6933 324.536 22.776 321.976 22.776C319.416 22.776 317.261 23.6933 315.512 25.528C313.805 27.32 312.952 29.9013 312.952 33.272C312.952 36.6427 313.784 39.2453 315.448 41.08C317.154 42.872 319.288 43.768 321.848 43.768ZM351.46 11.32C349.839 11.32 348.495 10.8293 347.428 9.848C346.404 8.824 345.892 7.56533 345.892 6.072C345.892 4.57866 346.404 3.34133 347.428 2.36C348.495 1.336 349.839 0.823997 351.46 0.823997C353.039 0.823997 354.34 1.336 355.364 2.36C356.388 3.34133 356.9 4.57866 356.9 6.072C356.9 7.56533 356.388 8.824 355.364 9.848C354.34 10.8293 353.039 11.32 351.46 11.32ZM355.876 56.824C355.876 60.7493 354.895 63.5653 352.932 65.272C351.012 67.0213 348.239 67.896 344.612 67.896H340.644V60.28H343.204C344.569 60.28 345.529 60.0027 346.084 59.448C346.639 58.936 346.916 58.0827 346.916 56.888V15.544H355.876V56.824ZM397.689 32.504C397.689 33.784 397.603 34.936 397.433 35.96H371.513C371.726 38.52 372.622 40.5253 374.201 41.976C375.779 43.4267 377.721 44.152 380.025 44.152C383.353 44.152 385.721 42.7227 387.129 39.864H396.793C395.769 43.2773 393.806 46.0933 390.905 48.312C388.003 50.488 384.441 51.576 380.217 51.576C376.803 51.576 373.731 50.8293 371.001 49.336C368.313 47.8 366.201 45.6453 364.665 42.872C363.171 40.0987 362.424 36.8987 362.424 33.272C362.424 29.6027 363.171 26.3813 364.665 23.608C366.158 20.8347 368.249 18.7013 370.937 17.208C373.625 15.7147 376.718 14.968 380.217 14.968C383.587 14.968 386.595 15.6933 389.241 17.144C391.929 18.5947 393.998 20.664 395.449 23.352C396.942 25.9973 397.689 29.048 397.689 32.504ZM388.409 29.944C388.366 27.64 387.534 25.8053 385.913 24.44C384.291 23.032 382.307 22.328 379.961 22.328C377.742 22.328 375.865 23.0107 374.329 24.376C372.835 25.6987 371.918 27.5547 371.577 29.944H388.409ZM401.924 33.272C401.924 29.6027 402.671 26.4027 404.165 23.672C405.658 20.8987 407.727 18.7653 410.373 17.272C413.018 15.736 416.047 14.968 419.461 14.968C423.855 14.968 427.482 16.0773 430.341 18.296C433.242 20.472 435.183 23.544 436.165 27.512H426.501C425.989 25.976 425.114 24.7813 423.877 23.928C422.682 23.032 421.189 22.584 419.397 22.584C416.837 22.584 414.81 23.5227 413.317 25.4C411.823 27.2347 411.077 29.8587 411.077 33.272C411.077 36.6427 411.823 39.2667 413.317 41.144C414.81 42.9787 416.837 43.896 419.397 43.896C423.023 43.896 425.391 42.2747 426.501 39.032H436.165C435.183 42.872 433.242 45.9227 430.341 48.184C427.439 50.4453 423.813 51.576 419.461 51.576C416.047 51.576 413.018 50.8293 410.373 49.336C407.727 47.8 405.658 45.6667 404.165 42.936C402.671 40.1627 401.924 36.9413 401.924 33.272ZM453.161 22.904V40.056C453.161 41.2507 453.438 42.1253 453.993 42.68C454.59 43.192 455.571 43.448 456.937 43.448H461.097V51H455.465C447.913 51 444.137 47.3307 444.137 39.992V22.904H439.913V15.544H444.137V6.776H453.161V15.544H461.097V22.904H453.161ZM481.109 51.576C478.208 51.576 475.605 51.064 473.301 50.04C470.997 48.9733 469.162 47.544 467.797 45.752C466.474 43.96 465.749 41.976 465.621 39.8H474.645C474.816 41.1653 475.477 42.296 476.629 43.192C477.824 44.088 479.296 44.536 481.045 44.536C482.752 44.536 484.074 44.1947 485.013 43.512C485.994 42.8293 486.485 41.9547 486.485 40.888C486.485 39.736 485.888 38.8827 484.693 38.328C483.541 37.7307 481.685 37.0907 479.125 36.408C476.48 35.768 474.304 35.1067 472.597 34.424C470.933 33.7413 469.482 32.696 468.245 31.288C467.05 29.88 466.453 27.9813 466.453 25.592C466.453 23.6293 467.008 21.8373 468.117 20.216C469.269 18.5947 470.89 17.3147 472.981 16.376C475.114 15.4373 477.61 14.968 480.469 14.968C484.693 14.968 488.064 16.0347 490.581 18.168C493.098 20.2587 494.485 23.096 494.741 26.68H486.165C486.037 25.272 485.44 24.1627 484.373 23.352C483.349 22.4987 481.962 22.072 480.213 22.072C478.592 22.072 477.333 22.3707 476.437 22.968C475.584 23.5653 475.157 24.3973 475.157 25.464C475.157 26.6587 475.754 27.576 476.949 28.216C478.144 28.8133 480 29.432 482.517 30.072C485.077 30.712 487.189 31.3733 488.853 32.056C490.517 32.7387 491.946 33.8053 493.141 35.256C494.378 36.664 495.018 38.5413 495.061 40.888C495.061 42.936 494.485 44.7707 493.333 46.392C492.224 48.0133 490.602 49.2933 488.469 50.232C486.378 51.128 483.925 51.576 481.109 51.576Z" fill="#999999" fill-opacity="0.8"/>
</g>
<defs>
<filter id="filter0_ii_227_322" x="0.416016" y="0.823975" width="495.645" height="73.072" filterUnits="userSpaceOnUse" color-interpolation-filters="sRGB">
<feFlood flood-opacity="0" result="BackgroundImageFix"/>
<feBlend mode="normal" in="SourceGraphic" in2="BackgroundImageFix" result="shape"/>
<feColorMatrix in="SourceAlpha" type="matrix" values="0 0 0 0 0 0 0 0 0 0 0 0 0 0 0 0 0 0 127 0" result="hardAlpha"/>
<feOffset dy="6"/>
<feGaussianBlur stdDeviation="3"/>
<feComposite in2="hardAlpha" operator="arithmetic" k2="-1" k3="1"/>
<feColorMatrix type="matrix" values="0 0 0 0 0 0 0 0 0 0 0 0 0 0 0 0 0 0 0.5 0"/>
<feBlend mode="normal" in2="shape" result="effect1_innerShadow_227_322"/>
<feColorMatrix in="SourceAlpha" type="matrix" values="0 0 0 0 0 0 0 0 0 0 0 0 0 0 0 0 0 0 127 0" result="hardAlpha"/>
<feOffset dx="1"/>
<feGaussianBlur stdDeviation="1.5"/>
<feComposite in2="hardAlpha" operator="arithmetic" k2="-1" k3="1"/>
<feColorMatrix type="matrix" values="0 0 0 0 0.108333 0 0 0 0 0.108333 0 0 0 0 0.108333 0 0 0 1 0"/>
<feBlend mode="normal" in2="effect1_innerShadow_227_322" result="effect2_innerShadow_227_322"/>
</filter>
</defs>
</svg>
