<svg width="30" height="30" viewBox="0 0 30 30" fill="none" xmlns="http://www.w3.org/2000/svg">
<path d="M2.50039 4.375C4.02312 6.24188 5.92473 7.76433 8.07953 8.84173C10.2343 9.91913 12.5932 10.5269 15.0004 10.625C14.6754 9.3 14.6504 5.7 17.1754 4.2C18.2018 3.52526 19.3973 3.15274 20.6254 3.125C21.4268 3.12682 22.2191 3.29432 22.9526 3.61699C23.6861 3.93965 24.345 4.41052 24.8879 5C26.2035 4.71996 27.4683 4.23935 28.6379 3.575C28.2273 4.91649 27.3374 6.05998 26.1379 6.7875C27.2826 6.68845 28.4046 6.41005 29.4629 5.9625C28.6664 7.14928 27.6579 8.179 26.4879 9C27.3754 16.9625 20.2379 26.8625 10.0879 26.8625C6.79581 26.8805 3.55888 26.0173 0.712891 24.3625C2.26454 24.5557 3.83922 24.4338 5.34268 24.0043C6.84615 23.5747 8.2475 22.8463 9.46289 21.8625C8.11821 21.7834 6.82191 21.3324 5.7184 20.56C4.6149 19.7875 3.74751 18.7239 3.21289 17.4875C4.46289 17.8875 5.65039 18.0875 6.33789 17.4875C4.93348 17.1301 3.68101 16.3311 2.76507 15.2081C1.84912 14.0851 1.31814 12.6976 1.25039 11.25C1.66336 11.6538 2.152 11.9721 2.68826 12.1866C3.22453 12.4011 3.79787 12.5076 4.37539 12.5C3.11759 11.6139 2.23081 10.2951 1.88485 8.79589C1.53889 7.29673 1.75806 5.72264 2.50039 4.375V4.375Z" stroke="white" stroke-linecap="round" stroke-linejoin="round"/>
</svg>
