<svg width="783" height="96" viewBox="0 0 783 96" fill="none" xmlns="http://www.w3.org/2000/svg">
<g id="Web Development Skills" filter="url(#filter0_ii_227_256)">
<path d="M64.128 25.328L51.648 70H41.088L32.704 38.192L23.936 70L13.44 70.064L1.408 25.328H11.008L18.88 60.016L27.968 25.328H37.952L46.528 59.824L54.464 25.328H64.128ZM102.939 51.504C102.939 52.784 102.853 53.936 102.683 54.96H76.7625C76.9758 57.52 77.8718 59.5253 79.4505 60.976C81.0292 62.4267 82.9705 63.152 85.2745 63.152C88.6025 63.152 90.9705 61.7227 92.3785 58.864H102.043C101.019 62.2773 99.0558 65.0933 96.1545 67.312C93.2532 69.488 89.6905 70.576 85.4665 70.576C82.0532 70.576 78.9812 69.8293 76.2505 68.336C73.5625 66.8 71.4505 64.6453 69.9145 61.872C68.4212 59.0987 67.6745 55.8987 67.6745 52.272C67.6745 48.6027 68.4212 45.3813 69.9145 42.608C71.4078 39.8347 73.4985 37.7013 76.1865 36.208C78.8745 34.7147 81.9678 33.968 85.4665 33.968C88.8372 33.968 91.8452 34.6933 94.4905 36.144C97.1785 37.5947 99.2478 39.664 100.699 42.352C102.192 44.9973 102.939 48.048 102.939 51.504ZM93.6585 48.944C93.6158 46.64 92.7838 44.8053 91.1625 43.44C89.5412 42.032 87.5572 41.328 85.2105 41.328C82.9918 41.328 81.1145 42.0107 79.5785 43.376C78.0852 44.6987 77.1678 46.5547 76.8265 48.944H93.6585ZM118.439 39.728C119.591 38.0213 121.169 36.6347 123.175 35.568C125.223 34.5013 127.548 33.968 130.151 33.968C133.18 33.968 135.911 34.7147 138.343 36.208C140.817 37.7013 142.759 39.8347 144.167 42.608C145.617 45.3387 146.343 48.5173 146.343 52.144C146.343 55.7707 145.617 58.992 144.167 61.808C142.759 64.5813 140.817 66.736 138.343 68.272C135.911 69.808 133.18 70.576 130.151 70.576C127.505 70.576 125.18 70.064 123.175 69.04C121.212 67.9733 119.633 66.608 118.439 64.944V70H109.479V22.64H118.439V39.728ZM137.191 52.144C137.191 50.0107 136.743 48.176 135.847 46.64C134.993 45.0613 133.841 43.8667 132.391 43.056C130.983 42.2453 129.447 41.84 127.783 41.84C126.161 41.84 124.625 42.2667 123.175 43.12C121.767 43.9307 120.615 45.1253 119.719 46.704C118.865 48.2827 118.439 50.1387 118.439 52.272C118.439 54.4053 118.865 56.2613 119.719 57.84C120.615 59.4187 121.767 60.6347 123.175 61.488C124.625 62.2987 126.161 62.704 127.783 62.704C129.447 62.704 130.983 62.2773 132.391 61.424C133.841 60.5707 134.993 59.3547 135.847 57.776C136.743 56.1973 137.191 54.32 137.191 52.144ZM183.72 25.328C188.413 25.328 192.53 26.2453 196.072 28.08C199.656 29.9147 202.408 32.5387 204.328 35.952C206.29 39.3227 207.272 43.248 207.272 47.728C207.272 52.208 206.29 56.1333 204.328 59.504C202.408 62.832 199.656 65.4133 196.072 67.248C192.53 69.0827 188.413 70 183.72 70H168.104V25.328H183.72ZM183.4 62.384C188.093 62.384 191.72 61.104 194.28 58.544C196.84 55.984 198.12 52.3787 198.12 47.728C198.12 43.0773 196.84 39.4507 194.28 36.848C191.72 34.2027 188.093 32.88 183.4 32.88H177.064V62.384H183.4ZM246.939 51.504C246.939 52.784 246.853 53.936 246.683 54.96H220.763C220.976 57.52 221.872 59.5253 223.451 60.976C225.029 62.4267 226.971 63.152 229.275 63.152C232.603 63.152 234.971 61.7227 236.379 58.864H246.043C245.019 62.2773 243.056 65.0933 240.155 67.312C237.253 69.488 233.691 70.576 229.467 70.576C226.053 70.576 222.981 69.8293 220.251 68.336C217.563 66.8 215.451 64.6453 213.915 61.872C212.421 59.0987 211.674 55.8987 211.674 52.272C211.674 48.6027 212.421 45.3813 213.915 42.608C215.408 39.8347 217.499 37.7013 220.187 36.208C222.875 34.7147 225.968 33.968 229.467 33.968C232.837 33.968 235.845 34.6933 238.491 36.144C241.179 37.5947 243.248 39.664 244.699 42.352C246.192 44.9973 246.939 48.048 246.939 51.504ZM237.659 48.944C237.616 46.64 236.784 44.8053 235.163 43.44C233.541 42.032 231.557 41.328 229.211 41.328C226.992 41.328 225.115 42.0107 223.579 43.376C222.085 44.6987 221.168 46.5547 220.827 48.944H237.659ZM268.263 61.744L277.223 34.544H286.759L273.639 70H262.759L249.703 34.544H259.303L268.263 61.744ZM324.751 51.504C324.751 52.784 324.666 53.936 324.495 54.96H298.575C298.788 57.52 299.684 59.5253 301.263 60.976C302.842 62.4267 304.783 63.152 307.087 63.152C310.415 63.152 312.783 61.7227 314.191 58.864H323.855C322.831 62.2773 320.868 65.0933 317.967 67.312C315.066 69.488 311.503 70.576 307.279 70.576C303.866 70.576 300.794 69.8293 298.063 68.336C295.375 66.8 293.263 64.6453 291.727 61.872C290.234 59.0987 289.487 55.8987 289.487 52.272C289.487 48.6027 290.234 45.3813 291.727 42.608C293.22 39.8347 295.311 37.7013 297.999 36.208C300.687 34.7147 303.78 33.968 307.279 33.968C310.65 33.968 313.658 34.6933 316.303 36.144C318.991 37.5947 321.06 39.664 322.511 42.352C324.004 44.9973 324.751 48.048 324.751 51.504ZM315.471 48.944C315.428 46.64 314.596 44.8053 312.975 43.44C311.354 42.032 309.37 41.328 307.023 41.328C304.804 41.328 302.927 42.0107 301.391 43.376C299.898 44.6987 298.98 46.5547 298.639 48.944H315.471ZM340.251 22.64V70H331.291V22.64H340.251ZM364.848 70.576C361.434 70.576 358.362 69.8293 355.632 68.336C352.901 66.8 350.746 64.6453 349.168 61.872C347.632 59.0987 346.864 55.8987 346.864 52.272C346.864 48.6453 347.653 45.4453 349.232 42.672C350.853 39.8987 353.05 37.7653 355.824 36.272C358.597 34.736 361.69 33.968 365.104 33.968C368.517 33.968 371.61 34.736 374.384 36.272C377.157 37.7653 379.333 39.8987 380.912 42.672C382.533 45.4453 383.344 48.6453 383.344 52.272C383.344 55.8987 382.512 59.0987 380.847 61.872C379.226 64.6453 377.008 66.8 374.192 68.336C371.418 69.8293 368.304 70.576 364.848 70.576ZM364.848 62.768C366.469 62.768 367.984 62.384 369.392 61.616C370.842 60.8053 371.994 59.6107 372.848 58.032C373.701 56.4533 374.128 54.5333 374.128 52.272C374.128 48.9013 373.232 46.32 371.44 44.528C369.69 42.6933 367.536 41.776 364.976 41.776C362.416 41.776 360.261 42.6933 358.512 44.528C356.805 46.32 355.952 48.9013 355.952 52.272C355.952 55.6427 356.784 58.2453 358.448 60.08C360.154 61.872 362.288 62.768 364.848 62.768ZM398.876 39.664C400.028 38.0427 401.607 36.6987 403.612 35.632C405.66 34.5227 407.985 33.968 410.588 33.968C413.617 33.968 416.348 34.7147 418.78 36.208C421.255 37.7013 423.196 39.8347 424.604 42.608C426.055 45.3387 426.78 48.5173 426.78 52.144C426.78 55.7707 426.055 58.992 424.604 61.808C423.196 64.5813 421.255 66.736 418.78 68.272C416.348 69.808 413.617 70.576 410.588 70.576C407.985 70.576 405.681 70.0427 403.676 68.976C401.713 67.9093 400.113 66.5653 398.876 64.944V86.896H389.916V34.544H398.876V39.664ZM417.628 52.144C417.628 50.0107 417.18 48.176 416.284 46.64C415.431 45.0613 414.279 43.8667 412.828 43.056C411.42 42.2453 409.884 41.84 408.22 41.84C406.599 41.84 405.063 42.2667 403.612 43.12C402.204 43.9307 401.052 45.1253 400.156 46.704C399.303 48.2827 398.876 50.1387 398.876 52.272C398.876 54.4053 399.303 56.2613 400.156 57.84C401.052 59.4187 402.204 60.6347 403.612 61.488C405.063 62.2987 406.599 62.704 408.22 62.704C409.884 62.704 411.42 62.2773 412.828 61.424C414.279 60.5707 415.431 59.3547 416.284 57.776C417.18 56.1973 417.628 54.32 417.628 52.144ZM477.323 34.032C481.675 34.032 485.174 35.376 487.819 38.064C490.507 40.7093 491.851 44.4213 491.851 49.2V70H482.891V50.416C482.891 47.6427 482.187 45.5307 480.779 44.08C479.371 42.5867 477.451 41.84 475.019 41.84C472.587 41.84 470.646 42.5867 469.195 44.08C467.787 45.5307 467.083 47.6427 467.083 50.416V70H458.123V50.416C458.123 47.6427 457.419 45.5307 456.011 44.08C454.603 42.5867 452.683 41.84 450.251 41.84C447.776 41.84 445.814 42.5867 444.363 44.08C442.955 45.5307 442.251 47.6427 442.251 50.416V70H433.291V34.544H442.251V38.832C443.403 37.3387 444.875 36.1653 446.667 35.312C448.502 34.4587 450.507 34.032 452.683 34.032C455.456 34.032 457.931 34.6293 460.107 35.824C462.283 36.976 463.968 38.64 465.163 40.816C466.315 38.768 467.979 37.1253 470.155 35.888C472.374 34.6507 474.763 34.032 477.323 34.032ZM533.314 51.504C533.314 52.784 533.228 53.936 533.058 54.96H507.138C507.351 57.52 508.247 59.5253 509.826 60.976C511.404 62.4267 513.346 63.152 515.65 63.152C518.978 63.152 521.346 61.7227 522.754 58.864H532.418C531.394 62.2773 529.431 65.0933 526.53 67.312C523.628 69.488 520.066 70.576 515.842 70.576C512.428 70.576 509.356 69.8293 506.626 68.336C503.938 66.8 501.826 64.6453 500.29 61.872C498.796 59.0987 498.049 55.8987 498.049 52.272C498.049 48.6027 498.796 45.3813 500.29 42.608C501.783 39.8347 503.874 37.7013 506.562 36.208C509.25 34.7147 512.343 33.968 515.842 33.968C519.212 33.968 522.22 34.6933 524.866 36.144C527.554 37.5947 529.623 39.664 531.074 42.352C532.567 44.9973 533.314 48.048 533.314 51.504ZM524.034 48.944C523.991 46.64 523.159 44.8053 521.538 43.44C519.916 42.032 517.932 41.328 515.586 41.328C513.367 41.328 511.49 42.0107 509.954 43.376C508.46 44.6987 507.543 46.5547 507.202 48.944H524.034ZM559.502 34.032C563.726 34.032 567.139 35.376 569.742 38.064C572.344 40.7093 573.646 44.4213 573.646 49.2V70H564.686V50.416C564.686 47.6 563.982 45.4453 562.574 43.952C561.166 42.416 559.246 41.648 556.814 41.648C554.339 41.648 552.376 42.416 550.926 43.952C549.518 45.4453 548.814 47.6 548.814 50.416V70H539.854V34.544H548.814V38.96C550.008 37.424 551.523 36.2293 553.358 35.376C555.235 34.48 557.283 34.032 559.502 34.032ZM592.598 41.904V59.056C592.598 60.2507 592.875 61.1253 593.43 61.68C594.027 62.192 595.009 62.448 596.374 62.448H600.534V70H594.902C587.35 70 583.574 66.3307 583.574 58.992V41.904H579.35V34.544H583.574V25.776H592.598V34.544H600.534V41.904H592.598ZM637.653 70.448C634.538 70.448 631.722 69.9147 629.205 68.848C626.73 67.7813 624.767 66.2453 623.317 64.24C621.866 62.2347 621.119 59.8667 621.077 57.136H630.677C630.805 58.9707 631.445 60.4213 632.597 61.488C633.791 62.5547 635.413 63.088 637.461 63.088C639.551 63.088 641.194 62.5973 642.389 61.616C643.583 60.592 644.181 59.2693 644.181 57.648C644.181 56.3253 643.775 55.2373 642.965 54.384C642.154 53.5307 641.13 52.8693 639.893 52.4C638.698 51.888 637.034 51.3333 634.901 50.736C631.999 49.8827 629.631 49.0507 627.797 48.24C626.005 47.3867 624.447 46.128 623.125 44.464C621.845 42.7573 621.205 40.496 621.205 37.68C621.205 35.0347 621.866 32.7307 623.189 30.768C624.511 28.8053 626.367 27.312 628.757 26.288C631.146 25.2213 633.877 24.688 636.949 24.688C641.557 24.688 645.29 25.8187 648.149 28.08C651.05 30.2987 652.65 33.4133 652.949 37.424H643.093C643.007 35.888 642.346 34.6293 641.109 33.648C639.914 32.624 638.314 32.112 636.309 32.112C634.559 32.112 633.151 32.56 632.085 33.456C631.061 34.352 630.549 35.6533 630.549 37.36C630.549 38.5547 630.933 39.5573 631.701 40.368C632.511 41.136 633.493 41.776 634.645 42.288C635.839 42.7573 637.503 43.312 639.637 43.952C642.538 44.8053 644.906 45.6587 646.741 46.512C648.575 47.3653 650.154 48.6453 651.477 50.352C652.799 52.0587 653.461 54.2987 653.461 57.072C653.461 59.4613 652.842 61.68 651.604 63.728C650.367 65.776 648.554 67.4187 646.165 68.656C643.775 69.8507 640.938 70.448 637.653 70.448ZM682.221 70L670.189 54.896V70H661.229V22.64H670.189V49.584L682.093 34.544H693.741L678.125 52.336L693.869 70H682.221ZM703.148 30.32C701.569 30.32 700.246 29.8293 699.18 28.848C698.156 27.824 697.644 26.5653 697.644 25.072C697.644 23.5787 698.156 22.3413 699.18 21.36C700.246 20.336 701.569 19.824 703.148 19.824C704.726 19.824 706.028 20.336 707.052 21.36C708.118 22.3413 708.652 23.5787 708.652 25.072C708.652 26.5653 708.118 27.824 707.052 28.848C706.028 29.8293 704.726 30.32 703.148 30.32ZM707.564 34.544V70H698.604V34.544H707.564ZM725.376 22.64V70H716.416V22.64H725.376ZM743.189 22.64V70H734.229V22.64H743.189ZM765.609 70.576C762.708 70.576 760.105 70.064 757.801 69.04C755.497 67.9733 753.662 66.544 752.297 64.752C750.974 62.96 750.249 60.976 750.121 58.8H759.145C759.316 60.1653 759.977 61.296 761.129 62.192C762.324 63.088 763.796 63.536 765.545 63.536C767.252 63.536 768.574 63.1947 769.513 62.512C770.494 61.8293 770.985 60.9547 770.985 59.888C770.985 58.736 770.388 57.8827 769.193 57.328C768.041 56.7307 766.185 56.0907 763.625 55.408C760.98 54.768 758.804 54.1067 757.097 53.424C755.433 52.7413 753.982 51.696 752.745 50.288C751.55 48.88 750.953 46.9813 750.953 44.592C750.953 42.6293 751.508 40.8373 752.617 39.216C753.769 37.5947 755.39 36.3147 757.481 35.376C759.614 34.4373 762.11 33.968 764.969 33.968C769.193 33.968 772.564 35.0347 775.081 37.168C777.598 39.2587 778.985 42.096 779.241 45.68H770.665C770.537 44.272 769.94 43.1627 768.873 42.352C767.849 41.4987 766.462 41.072 764.713 41.072C763.092 41.072 761.833 41.3707 760.937 41.968C760.084 42.5653 759.657 43.3973 759.657 44.464C759.657 45.6587 760.254 46.576 761.449 47.216C762.644 47.8133 764.5 48.432 767.017 49.072C769.577 49.712 771.689 50.3733 773.353 51.056C775.017 51.7387 776.446 52.8053 777.641 54.256C778.878 55.664 779.518 57.5413 779.561 59.888C779.561 61.936 778.985 63.7707 777.833 65.392C776.724 67.0133 775.102 68.2933 772.969 69.232C770.878 70.128 768.425 70.576 765.609 70.576Z" fill="#999999" fill-opacity="0.8"/>
</g>
<defs>
<filter id="filter0_ii_227_256" x="1.40799" y="19.824" width="779.153" height="73.072" filterUnits="userSpaceOnUse" color-interpolation-filters="sRGB">
<feFlood flood-opacity="0" result="BackgroundImageFix"/>
<feBlend mode="normal" in="SourceGraphic" in2="BackgroundImageFix" result="shape"/>
<feColorMatrix in="SourceAlpha" type="matrix" values="0 0 0 0 0 0 0 0 0 0 0 0 0 0 0 0 0 0 127 0" result="hardAlpha"/>
<feOffset dy="6"/>
<feGaussianBlur stdDeviation="3"/>
<feComposite in2="hardAlpha" operator="arithmetic" k2="-1" k3="1"/>
<feColorMatrix type="matrix" values="0 0 0 0 0 0 0 0 0 0 0 0 0 0 0 0 0 0 0.5 0"/>
<feBlend mode="normal" in2="shape" result="effect1_innerShadow_227_256"/>
<feColorMatrix in="SourceAlpha" type="matrix" values="0 0 0 0 0 0 0 0 0 0 0 0 0 0 0 0 0 0 127 0" result="hardAlpha"/>
<feOffset dx="1"/>
<feGaussianBlur stdDeviation="1.5"/>
<feComposite in2="hardAlpha" operator="arithmetic" k2="-1" k3="1"/>
<feColorMatrix type="matrix" values="0 0 0 0 0.108333 0 0 0 0 0.108333 0 0 0 0 0.108333 0 0 0 1 0"/>
<feBlend mode="normal" in2="effect1_innerShadow_227_256" result="effect2_innerShadow_227_256"/>
</filter>
</defs>
</svg>
